<?xml version="1.0" standalone="no"?><!DOCTYPE svg PUBLIC "-//W3C//DTD SVG 1.1//EN" "http://www.w3.org/Graphics/SVG/1.1/DTD/svg11.dtd"><svg t="1655454174219" class="icon" viewBox="0 0 1024 1024" version="1.1" xmlns="http://www.w3.org/2000/svg" p-id="1389" xmlns:xlink="http://www.w3.org/1999/xlink" width="200" height="200"><defs><style type="text/css">@font-face { font-family: feedback-iconfont; src: url("//at.alicdn.com/t/font_1031158_u69w8yhxdu.woff2?t=1630033759944") format("woff2"), url("//at.alicdn.com/t/font_1031158_u69w8yhxdu.woff?t=1630033759944") format("woff"), url("//at.alicdn.com/t/font_1031158_u69w8yhxdu.ttf?t=1630033759944") format("truetype"); }
</style></defs><path d="M896 181.333333a32 32 0 0 1 4.352 63.701334L896 245.333333H128a32 32 0 0 1-4.352-63.701333L128 181.333333h768zM640 480a32 32 0 0 1 4.352 63.701333L640 544H128a32 32 0 0 1-4.352-63.701333L128 480h512zM810.666667 778.666667a32 32 0 0 1 4.352 63.701333L810.666667 842.666667H128a32 32 0 0 1-4.352-63.701334L128 778.666667h682.666667z" p-id="1390"></path></svg>