<?xml version="1.0" standalone="no"?><!DOCTYPE svg PUBLIC "-//W3C//DTD SVG 1.1//EN" "http://www.w3.org/Graphics/SVG/1.1/DTD/svg11.dtd"><svg t="1655479035363" class="icon" viewBox="0 0 1024 1024" version="1.1" xmlns="http://www.w3.org/2000/svg" p-id="8270" xmlns:xlink="http://www.w3.org/1999/xlink" width="200" height="200"><defs><style type="text/css">@font-face { font-family: feedback-iconfont; src: url("//at.alicdn.com/t/font_1031158_u69w8yhxdu.woff2?t=1630033759944") format("woff2"), url("//at.alicdn.com/t/font_1031158_u69w8yhxdu.woff?t=1630033759944") format("woff"), url("//at.alicdn.com/t/font_1031158_u69w8yhxdu.ttf?t=1630033759944") format("truetype"); }
</style></defs><path d="M212.7 509.8c4.1 0 8.2-1.6 11.3-4.7l43.8-43.8c6.2-6.2 6.2-16.4 0-22.6-6.2-6.2-16.4-6.2-22.6 0l-43.8 43.8c-6.2 6.2-6.2 16.4 0 22.6 3.1 3.1 7.2 4.7 11.3 4.7z" p-id="8271"></path><path d="M875.7 469.4l-39.5-269.7c-1-6.9-6.4-12.4-13.4-13.5l-273-42.8c-5.1-0.8-10.2 0.9-13.8 4.5L312.4 371.5c-6.2 6.2-6.2 16.4 0 22.6 6.2 6.2 16.4 6.2 22.6 0l217.9-217.9 253.3 39.7L842.9 466 410.7 898.2 120.8 608.3l65.4-65.4c6.2-6.2 6.2-16.4 0-22.6-6.2-6.2-16.4-6.2-22.6 0L86.8 597c-3 3-4.7 7.1-4.7 11.3s1.7 8.3 4.7 11.3l312.5 312.5c3 3 7.1 4.7 11.3 4.7s8.3-1.7 11.3-4.7L871.2 483c3.5-3.6 5.2-8.6 4.5-13.6z" p-id="8272"></path><path d="M711.9 408.9c13.6-13.6 21.1-31.7 21.1-50.9s-7.5-37.3-21.1-50.9c-28.1-28.1-73.8-28.1-101.8 0-13.6 13.6-21.1 31.7-21.1 50.9s7.5 37.3 21.1 50.9c14 14 32.5 21.1 50.9 21.1s36.9-7.1 50.9-21.1zM621 358c0-10.7 4.2-20.7 11.7-28.3 7.8-7.8 18-11.7 28.3-11.7s20.5 3.9 28.3 11.7c7.6 7.6 11.7 17.6 11.7 28.3s-4.2 20.7-11.7 28.3c-15.6 15.6-41 15.6-56.6 0-7.5-7.6-11.7-17.6-11.7-28.3z" p-id="8273"></path></svg>