<?xml version="1.0" standalone="no"?><!DOCTYPE svg PUBLIC "-//W3C//DTD SVG 1.1//EN" "http://www.w3.org/Graphics/SVG/1.1/DTD/svg11.dtd"><svg t="1655532743281" class="icon" viewBox="0 0 1024 1024" version="1.1" xmlns="http://www.w3.org/2000/svg" p-id="3822" xmlns:xlink="http://www.w3.org/1999/xlink" width="200" height="200"><defs><style type="text/css">@font-face { font-family: feedback-iconfont; src: url("//at.alicdn.com/t/font_1031158_u69w8yhxdu.woff2?t=1630033759944") format("woff2"), url("//at.alicdn.com/t/font_1031158_u69w8yhxdu.woff?t=1630033759944") format("woff"), url("//at.alicdn.com/t/font_1031158_u69w8yhxdu.ttf?t=1630033759944") format("truetype"); }
</style></defs><path d="M102.4 896a409.6 51.2 0 1 0 819.2 0 409.6 51.2 0 1 0-819.2 0Z" fill="#4A68CC" opacity=".1" p-id="3823"></path><path d="M214.016 566.272c0 8.704 6.656 15.36 15.36 15.36s15.36-6.656 15.36-15.36-6.656-15.36-15.36-15.36c-8.192 0-15.36 7.168-15.36 15.36zM921.6 842.752c-15.36 4.096-18.944 7.168-23.04 23.04-4.096-15.36-7.168-18.944-23.04-23.04 15.36-4.096 18.944-7.68 23.04-23.04 4.096 15.36 7.168 18.944 23.04 23.04zM870.4 795.136c-27.648 7.168-33.792 13.312-40.96 40.96-7.168-27.648-13.312-33.792-40.96-40.96 27.648-7.168 33.792-13.312 40.96-40.96 7.168 27.648 13.312 33.792 40.96 40.96zM888.32 194.048c-15.36 4.096-18.432 7.168-22.528 22.528-4.096-15.36-7.168-18.432-22.528-22.528 15.36-4.096 18.432-7.168 22.528-22.528 3.584 15.36 7.168 18.432 22.528 22.528zM875.52 135.68c-39.936 10.24-48.128 18.944-58.88 58.88-10.24-39.936-18.944-48.128-58.88-58.88 39.936-10.24 48.128-18.944 58.88-58.88 10.24 39.424 18.944 48.128 58.88 58.88z" fill="#4A68CC" opacity=".5" p-id="3824"></path><path d="M148.48 199.68v4.608l38.4 35.84 147.456-71.68-133.12 85.504h-0.512v41.984l21.504-20.992v-0.512l0.512 0.512 21.504 20.992L358.4 156.16v-4.608zM588.8 245.76c-110.08 0-199.68 89.6-199.68 199.68s89.6 199.68 199.68 199.68 199.68-89.6 199.68-199.68-89.6-199.68-199.68-199.68z m51.2 215.04h-102.4c-8.704 0-15.36-6.656-15.36-15.36s6.656-15.36 15.36-15.36h102.4c8.704 0 15.36 6.656 15.36 15.36s-6.656 15.36-15.36 15.36z" fill="#4A68CC" opacity=".2" p-id="3825"></path><path d="M588.8 179.2c-146.944 0-266.24 119.296-266.24 266.24 0 72.704 29.184 138.24 76.288 186.368l-41.984 41.984-3.584-3.584c-17.92-17.92-47.104-17.92-65.024 0l-101.376 101.376c-17.92 17.92-17.92 47.104 0 65.024l29.184 29.184c9.216 9.216 20.992 13.312 32.768 13.312s23.552-4.608 32.768-13.312l101.376-101.376c17.92-17.92 17.92-47.104 0-65.024l-3.584-3.584 43.008-43.008c45.568 36.864 103.936 58.88 166.912 58.88 146.944 0 266.24-119.296 266.24-266.24S735.744 179.2 588.8 179.2zM360.96 742.912l-101.376 101.376c-6.144 6.144-15.872 6.144-21.504 0l-29.184-29.184c-6.144-6.144-6.144-15.872 0-21.504l101.376-101.376c3.072-3.072 7.168-4.608 10.752-4.608 4.096 0 7.68 1.536 10.752 4.608l29.184 29.184c5.632 5.632 5.632 15.36 0 21.504zM588.8 680.96c-130.048 0-235.52-105.472-235.52-235.52s105.472-235.52 235.52-235.52 235.52 105.472 235.52 235.52-105.472 235.52-235.52 235.52z" fill="#4A68CC" opacity=".5" p-id="3826"></path></svg>